<?xml version="1.0" encoding="UTF-8"?>
<svg version="1.1" xmlns="http://www.w3.org/2000/svg" width="500" height="500">
<path d="M0 0 C1.59918907 1.51329791 3.18745597 3.03665336 4.76806641 4.56933594 C6.00879398 5.76524879 7.27397433 6.93568703 8.54296875 8.1015625 C14.27448503 13.50944125 18.89996301 19.62303227 23.49609375 25.9987793 C27.39419208 31.29896281 30.79739692 34.80746564 37.1875 36.9375 C39.57892255 36.98669498 41.97176485 36.97408646 44.36328125 36.9296875 C45.83502821 36.90927544 47.30679056 36.88995032 48.77856445 36.87158203 C49.54931305 36.86112854 50.32006165 36.85067505 51.11416626 36.83990479 C99.06876411 36.28907619 142.05040866 50.64092297 177.1875 83.9375 C178.08210938 84.77925781 178.97671875 85.62101562 179.8984375 86.48828125 C207.40923698 113.11287851 226.142346 152.70469579 226.81640625 191.19921875 C226.834207 194.30351342 226.82221048 197.40492108 226.78442383 200.5090332 C226.74988745 203.63518733 226.76392494 206.75852739 226.78320312 209.88476562 C226.77215363 226.68585753 224.52286137 242.72306913 218.9375 258.625 C218.6394043 259.48963867 218.34130859 260.35427734 218.03417969 261.24511719 C209.65494662 284.92101871 196.21956406 304.59527717 179.1875 322.9375 C178.64867187 323.53046875 178.10984375 324.1234375 177.5546875 324.734375 C151.87206952 351.83663518 111.42945506 369.56806674 74.27612305 371.09863281 C72.91722271 371.11812853 71.55823102 371.13191498 70.19921875 371.140625 C69.4626152 371.14763931 68.72601166 371.15465363 67.96708679 371.16188049 C65.60299494 371.17928605 63.23915358 371.18573271 60.875 371.1875 C60.06726135 371.18817474 59.25952271 371.18884949 58.42730713 371.18954468 C46.43481122 371.17361345 34.89466005 370.75943941 23.1875 367.9375 C22.45547363 367.77121094 21.72344727 367.60492188 20.96923828 367.43359375 C-16.03420773 358.86687956 -45.91399679 335.92302633 -68.04296875 305.58203125 C-72.4638334 299.53698335 -72.4638334 299.53698335 -78.8125 295.9375 C-81.28529553 296.02897573 -83.72282371 296.18005704 -86.1875 296.375 C-129.62863001 299.24326751 -173.54223879 290.18388655 -207.3671875 261.1171875 C-208.17414063 260.39789063 -208.98109375 259.67859375 -209.8125 258.9375 C-211.08480469 257.82761719 -211.08480469 257.82761719 -212.3828125 256.6953125 C-214.89307191 254.47676519 -217.35889552 252.21842855 -219.8125 249.9375 C-220.52792969 249.2878125 -221.24335938 248.638125 -221.98046875 247.96875 C-253.16047489 218.43577515 -268.95324315 175.24593802 -271 133.07421875 C-271.61370968 97.36398662 -261.12677917 60.78149649 -239.8125 31.9375 C-239.05066406 30.88046875 -238.28882813 29.8234375 -237.50390625 28.734375 C-226.04788543 13.25477614 -212.01667289 -0.6210059 -195.8125 -11.0625 C-195.14395996 -11.49498047 -194.47541992 -11.92746094 -193.78662109 -12.37304688 C-135.33056484 -49.6208357 -51.93078206 -47.97458412 0 0 Z M-185.8125 61.9375 C-203.27824537 82.94638584 -211.75238478 110.79776577 -209.8125 137.9375 C-207.51237827 160.88323194 -199.20970881 181.68410594 -183.8125 198.9375 C-183.02875 199.96875 -182.245 201 -181.4375 202.0625 C-177.332548 206.55839981 -172.61751393 210.21622562 -167.8125 213.9375 C-166.636875 214.85402344 -166.636875 214.85402344 -165.4375 215.7890625 C-146.00345916 230.1676265 -120.9679083 238.24449042 -96.8125 234.9375 C-96.82297363 234.10613525 -96.83344727 233.27477051 -96.84423828 232.41821289 C-96.8786057 229.29273529 -96.90353659 226.16735498 -96.92236328 223.04174805 C-96.93720245 221.04013623 -96.96263361 219.03861188 -96.98828125 217.03710938 C-97.07308888 200.20279505 -97.07308888 200.20279505 -93.125 194.5 C-87.10188974 190.4303309 -80.40385326 190.64466894 -73.3984375 190.6628418 C-72.37478088 190.65773087 -71.35112427 190.65261993 -70.29644775 190.64735413 C-66.92673835 190.63350116 -63.55723442 190.63441144 -60.1875 190.63671875 C-57.8377271 190.63282998 -55.48795489 190.62849494 -53.13818359 190.62373352 C-48.21905231 190.61628093 -43.29999282 190.61655604 -38.38085938 190.62182617 C-32.0827208 190.627625 -25.7848759 190.61067489 -19.48678589 190.5874815 C-14.63629443 190.57273953 -9.78587366 190.57187301 -4.93536377 190.57499123 C-2.61337705 190.57447843 -0.29138633 190.56924859 2.03057861 190.55917931 C5.27839184 190.54682109 8.5256332 190.55360291 11.7734375 190.56518555 C12.72845154 190.55754181 13.68346558 190.54989807 14.66741943 190.54202271 C20.26480513 190.58606748 24.25963779 191.20460025 29.1875 193.9375 C33.47064496 200.01983953 32.67438176 207.0355657 32.63354492 214.15966797 C32.6250222 216.43158234 32.65385262 218.70098887 32.68554688 220.97265625 C32.68715899 222.42968675 32.68658116 223.88672167 32.68359375 225.34375 C32.68544678 226.65666016 32.6872998 227.96957031 32.68920898 229.32226562 C32.10494414 233.53238427 30.85172898 235.66308929 28.1875 238.9375 C21.38466261 243.47272493 11.01083573 242.07842912 3.05078125 242.03515625 C2.04532761 242.0337413 1.03987396 242.03232635 0.00395203 242.03086853 C-3.16406404 242.0253326 -6.33200579 242.01279266 -9.5 242 C-11.66601459 241.9949767 -13.83203031 241.99041526 -15.99804688 241.98632812 C-21.26955602 241.97538428 -26.5410227 241.95871154 -31.8125 241.9375 C-29.22461638 261.60221162 -15.96474433 278.37834821 -0.71875 290.37109375 C11.61755257 299.24903966 24.61006009 305.0133942 39.1875 308.9375 C40.51587891 309.30875 40.51587891 309.30875 41.87109375 309.6875 C56.37688202 313.02963362 72.94736197 311.83036614 87.1875 307.9375 C88.68216797 307.53724609 88.68216797 307.53724609 90.20703125 307.12890625 C103.90260571 303.00373322 116.22052269 296.05575828 127.1875 286.9375 C128.47914063 285.87402344 128.47914063 285.87402344 129.796875 284.7890625 C151.37371325 266.2276209 164.26676466 240.14345845 167.1875 211.9375 C168.91279786 182.50789989 158.17344294 155.13556622 139.1875 132.9375 C121.49140354 113.10290245 97.4602832 99.98902071 70.75 98.125 C65.10669354 97.81311758 59.77069786 98.19867683 54.1875 98.9375 C54.20321045 99.8346875 54.2189209 100.731875 54.23510742 101.65625 C54.28655641 105.01845196 54.3240042 108.3802292 54.35229492 111.74267578 C54.36728417 113.19163661 54.38768271 114.64055283 54.41381836 116.08935547 C54.73105658 134.14083224 54.73105658 134.14083224 49.4375 139.8125 C43.03333242 143.01458379 37.00008702 143.23078289 29.97290039 143.2121582 C28.97035721 143.21726913 27.96781403 143.22238007 26.93489075 143.22764587 C23.6349178 143.24149752 20.33515473 143.24058851 17.03515625 143.23828125 C14.73261946 143.24217039 12.43008337 143.24650551 10.12754822 143.25126648 C5.30676953 143.25871902 0.48606409 143.25844423 -4.3347168 143.25317383 C-10.502723 143.24737826 -16.670429 143.26431726 -22.83838558 143.2875185 C-27.59198246 143.30227176 -32.34550728 143.30312539 -37.099123 143.30000877 C-39.37283485 143.30052111 -41.64655083 143.30574228 -43.9202404 143.31582069 C-47.10319241 143.3281994 -50.2855627 143.32138461 -53.46850586 143.30981445 C-54.86758179 143.32128006 -54.86758179 143.32128006 -56.29492188 143.33297729 C-62.12908908 143.28625942 -66.52821472 142.48655262 -71.8125 139.9375 C-75.87912255 133.32753995 -75.30175164 126.13585095 -75.25854492 118.63989258 C-75.25000698 116.37684936 -75.27889079 114.11631206 -75.31054688 111.85351562 C-75.31215865 110.40104242 -75.3115818 108.94856478 -75.30859375 107.49609375 C-75.31044678 106.18954834 -75.3122998 104.88300293 -75.31420898 103.53686523 C-74.713981 99.23070408 -73.73208026 97.1556434 -70.8125 93.9375 C-64.65466926 91.11100455 -57.97956562 91.6821197 -51.31640625 91.7421875 C-50.12772446 91.7450174 -48.93904266 91.74784729 -47.71434021 91.75076294 C-43.93445582 91.76191794 -40.15481224 91.78701434 -36.375 91.8125 C-33.80534197 91.82253583 -31.23568022 91.83166063 -28.66601562 91.83984375 C-22.38142887 91.86184199 -16.09698165 91.89527311 -9.8125 91.9375 C-10.2749199 90.34838586 -10.74116084 88.76038331 -11.20898438 87.17285156 C-11.46820679 86.2884137 -11.7274292 85.40397583 -11.99450684 84.49273682 C-18.90219925 62.91457362 -37.22679063 44.3479221 -56.8125 33.9375 C-102.06463387 10.74102802 -152.87508877 24.753731 -185.8125 61.9375 Z " fill="#000000" transform="translate(273.8125,87.0625)"/>
</svg>
